<svg version="1.1" xmlns="http://www.w3.org/2000/svg" viewBox="0 0 4775.895692007879 1836.2269514879845" width="14327.687076023638" height="5508.680854463953" filter="invert(93%) hue-rotate(180deg)">
  <!-- svg-source:excalidraw -->
  
  <defs>
    <style class="style-fonts">
      @font-face {
        font-family: "Virgil";
        src: url("https://excalidraw.com/Virgil.woff2");
      }
      @font-face {
        font-family: "Cascadia";
        src: url("https://excalidraw.com/Cascadia.woff2");
      }
      @font-face {
        font-family: "Assistant";
        src: url("https://excalidraw.com/Assistant-Regular.woff2");
      }
    </style>
    
  </defs>
  <rect x="0" y="0" width="4775.895692007879" height="1836.2269514879845" fill="#ffffff"></rect><g stroke-opacity="0.1" fill-opacity="0.1" stroke-linecap="round" transform="translate(588.2460970325466 295.22769610356056) rotate(0 385.8333333333332 754.9999999999998)"><path d="M7.86 8.16 C7.86 8.16, 7.86 8.16, 7.86 8.16 M7.86 8.16 C7.86 8.16, 7.86 8.16, 7.86 8.16 M0.26 41.3 C10.87 29.09, 21.48 16.89, 36.34 -0.21 M0.26 41.3 C9.33 30.85, 18.41 20.41, 36.34 -0.21 M0.52 65.38 C16.86 46.58, 33.2 27.79, 57.6 -0.28 M0.52 65.38 C15.82 47.78, 31.12 30.17, 57.6 -0.28 M0.13 90.22 C22.63 64.34, 45.13 38.46, 78.2 0.41 M0.13 90.22 C31.16 54.52, 62.2 18.82, 78.2 0.41 M0.4 114.3 C29.74 80.54, 59.08 46.79, 99.46 0.34 M0.4 114.3 C24.62 86.43, 48.85 58.56, 99.46 0.34 M0.01 139.13 C46.56 85.58, 93.11 32.03, 120.72 0.27 M0.01 139.13 C32.91 101.28, 65.82 63.43, 120.72 0.27 M0.27 163.22 C33.68 124.78, 67.09 86.35, 141.98 0.2 M0.27 163.22 C39.75 117.8, 79.23 72.38, 141.98 0.2 M0.54 187.3 C41.98 139.63, 83.41 91.96, 163.24 0.13 M0.54 187.3 C44.16 137.12, 87.78 86.94, 163.24 0.13 M0.15 212.13 C56.27 147.58, 112.39 83.02, 184.5 0.06 M0.15 212.13 C61.03 142.1, 121.9 72.07, 184.5 0.06 M0.42 236.22 C46.81 182.85, 93.2 129.48, 205.76 -0.01 M0.42 236.22 C64.63 162.35, 128.84 88.48, 205.76 -0.01 M0.03 261.05 C82.66 165.99, 165.3 70.93, 227.02 -0.08 M0.03 261.05 C67.41 183.53, 134.8 106.02, 227.02 -0.08 M0.29 285.13 C72.84 201.68, 145.39 118.22, 248.28 -0.15 M0.29 285.13 C67.9 207.36, 135.5 129.59, 248.28 -0.15 M-0.1 309.97 C91.33 204.8, 182.76 99.62, 269.54 -0.22 M-0.1 309.97 C57.47 243.75, 115.03 177.53, 269.54 -0.22 M0.17 334.05 C90.32 230.34, 180.48 126.63, 290.8 -0.28 M0.17 334.05 C102.35 216.51, 204.52 98.97, 290.8 -0.28 M0.44 358.13 C67.73 280.72, 135.03 203.31, 311.41 0.4 M0.44 358.13 C78.97 267.79, 157.51 177.44, 311.41 0.4 M0.05 382.97 C132.12 231.04, 264.19 79.11, 332.67 0.33 M0.05 382.97 C96.76 271.72, 193.46 160.47, 332.67 0.33 M0.31 407.05 C87.11 307.2, 173.91 207.35, 353.93 0.26 M0.31 407.05 C114.9 275.24, 229.48 143.43, 353.93 0.26 M-0.08 431.89 C125.19 287.79, 250.45 143.69, 375.19 0.19 M-0.08 431.89 C138.35 272.64, 276.78 113.4, 375.19 0.19 M0.19 455.97 C134.19 301.82, 268.19 147.67, 396.45 0.12 M0.19 455.97 C109.31 330.44, 218.43 204.91, 396.45 0.12 M0.46 480.05 C152.15 305.54, 303.85 131.03, 417.71 0.06 M0.46 480.05 C84.82 383.01, 169.18 285.96, 417.71 0.06 M0.07 504.89 C118.09 369.11, 236.12 233.34, 438.97 -0.01 M0.07 504.89 C128.03 357.68, 255.99 210.48, 438.97 -0.01 M0.33 528.97 C180.63 321.57, 360.92 114.16, 460.23 -0.08 M0.33 528.97 C158.7 346.79, 317.06 164.62, 460.23 -0.08 M-0.06 553.81 C132.19 401.67, 264.44 249.54, 481.49 -0.15 M-0.06 553.81 C142.01 390.38, 284.07 226.96, 481.49 -0.15 M0.21 577.89 C194.87 353.96, 389.53 130.02, 502.75 -0.22 M0.21 577.89 C144.24 412.2, 288.26 246.52, 502.75 -0.22 M0.48 601.97 C133.67 448.75, 266.86 295.53, 523.35 0.47 M0.48 601.97 C181.25 394.01, 362.02 186.06, 523.35 0.47 M0.09 626.81 C207.12 388.64, 414.15 150.48, 544.61 0.4 M0.09 626.81 C140.38 465.42, 280.67 304.03, 544.61 0.4 M0.35 650.89 C210.23 409.45, 420.11 168.01, 565.87 0.33 M0.35 650.89 C136.73 494, 273.11 337.12, 565.87 0.33 M-0.04 675.72 C154.83 497.57, 309.69 319.42, 587.14 0.26 M-0.04 675.72 C131.31 524.63, 262.65 373.54, 587.14 0.26 M0.23 699.81 C151.19 526.14, 302.15 352.48, 608.4 0.19 M0.23 699.81 C192.56 478.55, 384.9 257.3, 608.4 0.19 M0.49 723.89 C248.16 438.99, 495.82 154.09, 629.66 0.12 M0.49 723.89 C181.98 515.12, 363.46 306.35, 629.66 0.12 M0.11 748.72 C242.82 469.51, 485.54 190.29, 650.92 0.05 M0.11 748.72 C158.57 566.43, 317.03 384.15, 650.92 0.05 M0.37 772.81 C261.06 472.91, 521.75 173.02, 672.18 -0.02 M0.37 772.81 C197.3 546.26, 394.24 319.71, 672.18 -0.02 M-0.02 797.64 C204.35 562.54, 408.72 327.44, 693.44 -0.09 M-0.02 797.64 C161.42 611.92, 322.86 426.21, 693.44 -0.09 M0.25 821.72 C234.33 552.45, 468.41 283.17, 714.7 -0.16 M0.25 821.72 C154.9 643.81, 309.56 465.91, 714.7 -0.16 M0.51 845.81 C166.3 655.09, 332.09 464.38, 735.96 -0.22 M0.51 845.81 C170.91 649.79, 341.3 453.78, 735.96 -0.22 M0.12 870.64 C268.39 562.03, 536.66 253.43, 754.59 2.73 M0.12 870.64 C282.78 545.49, 565.43 220.33, 754.59 2.73 M0.39 894.72 C184.07 683.42, 367.75 472.12, 767.32 12.47 M0.39 894.72 C249.71 607.92, 499.03 321.11, 767.32 12.47 M0 919.56 C214.11 673.25, 428.23 426.94, 771.53 32.02 M0 919.56 C170.8 723.08, 341.59 526.6, 771.53 32.02 M0.27 943.64 C211.73 700.38, 423.2 457.11, 772.45 55.35 M0.27 943.64 C259.3 645.66, 518.34 347.67, 772.45 55.35 M0.53 967.72 C279.55 646.75, 558.56 325.79, 772.06 80.18 M0.53 967.72 C268.93 658.97, 537.33 350.21, 772.06 80.18 M0.14 992.56 C253.35 701.28, 506.55 410.01, 772.33 104.27 M0.14 992.56 C172.16 794.68, 344.18 596.79, 772.33 104.27 M0.41 1016.64 C261.87 715.87, 523.32 415.1, 772.59 128.35 M0.41 1016.64 C218.83 765.38, 437.25 514.11, 772.59 128.35 M0.02 1041.48 C203.54 807.36, 407.05 573.24, 772.2 153.18 M0.02 1041.48 C219.69 788.78, 439.36 536.08, 772.2 153.18 M0.29 1065.56 C155.92 886.52, 311.56 707.48, 772.47 177.27 M0.29 1065.56 C226.18 805.7, 452.07 545.84, 772.47 177.27 M-0.1 1090.4 C158.38 908.08, 316.86 725.77, 772.08 202.1 M-0.1 1090.4 C274.44 774.57, 548.99 458.74, 772.08 202.1 M0.16 1114.48 C159.37 931.33, 318.58 748.18, 772.34 226.18 M0.16 1114.48 C294.07 776.38, 587.97 438.28, 772.34 226.18 M0.43 1138.56 C262.85 836.67, 525.28 534.79, 772.61 250.27 M0.43 1138.56 C161.38 953.41, 322.33 768.25, 772.61 250.27 M0.04 1163.4 C209.02 923, 417.99 682.59, 772.22 275.1 M0.04 1163.4 C222.67 907.29, 445.29 651.19, 772.22 275.1 M0.31 1187.48 C244.94 906.06, 489.58 624.64, 772.49 299.18 M0.31 1187.48 C272.97 873.81, 545.63 560.15, 772.49 299.18 M-0.08 1212.31 C289.93 878.69, 579.95 545.06, 772.1 324.02 M-0.08 1212.31 C227.19 950.87, 454.46 689.42, 772.1 324.02 M0.18 1236.4 C191.71 1016.07, 383.24 795.74, 772.36 348.1 M0.18 1236.4 C183.21 1025.85, 366.23 815.3, 772.36 348.1 M0.45 1260.48 C281.67 936.97, 562.88 613.47, 772.63 372.18 M0.45 1260.48 C166.37 1069.6, 332.3 878.73, 772.63 372.18 M0.06 1285.31 C237.84 1011.77, 475.63 738.24, 772.24 397.02 M0.06 1285.31 C189.35 1067.56, 378.65 849.8, 772.24 397.02 M0.33 1309.4 C264.5 1005.5, 528.67 701.6, 772.51 421.1 M0.33 1309.4 C157.6 1128.47, 314.87 947.55, 772.51 421.1 M-0.06 1334.23 C257.4 1038.05, 514.87 741.86, 772.12 445.94 M-0.06 1334.23 C231.53 1067.81, 463.13 801.39, 772.12 445.94 M0.2 1358.31 C214.5 1111.79, 428.8 865.27, 772.38 470.02 M0.2 1358.31 C271.96 1045.7, 543.71 733.08, 772.38 470.02 M0.47 1382.4 C173.38 1183.48, 346.3 984.56, 772.65 494.1 M0.47 1382.4 C202.26 1150.26, 404.06 918.12, 772.65 494.1 M0.08 1407.23 C155.36 1228.61, 310.63 1049.98, 772.26 518.94 M0.08 1407.23 C222.74 1151.09, 445.4 894.94, 772.26 518.94 M0.34 1431.31 C263.93 1128.1, 527.51 824.88, 772.53 543.02 M0.34 1431.31 C252.71 1141, 505.08 850.68, 772.53 543.02 M-0.05 1456.15 C159 1273.19, 318.04 1090.23, 772.14 567.86 M-0.05 1456.15 C292.73 1119.35, 585.51 782.54, 772.14 567.86 M0.88 1479.48 C240.13 1204.25, 479.38 929.02, 772.4 591.94 M0.88 1479.48 C179.38 1274.13, 357.89 1068.78, 772.4 591.94 M5.74 1498.28 C195.8 1279.63, 385.86 1060.99, 772.67 616.02 M5.74 1498.28 C257.33 1208.85, 508.92 919.42, 772.67 616.02 M18.47 1508.02 C182.12 1319.76, 345.77 1131.5, 772.28 640.86 M18.47 1508.02 C204.97 1293.47, 391.48 1078.92, 772.28 640.86 M37.76 1510.21 C291.13 1218.75, 544.5 927.28, 772.55 664.94 M37.76 1510.21 C314.22 1192.18, 590.68 874.15, 772.55 664.94 M59.02 1510.14 C210.03 1336.42, 361.05 1162.7, 772.16 689.77 M59.02 1510.14 C333.53 1194.36, 608.04 878.57, 772.16 689.77 M80.28 1510.08 C341.65 1209.4, 603.02 908.73, 772.42 713.86 M80.28 1510.08 C289.62 1269.25, 498.96 1028.43, 772.42 713.86 M101.54 1510.01 C306.71 1273.98, 511.88 1037.96, 772.03 738.69 M101.54 1510.01 C363.96 1208.13, 626.38 906.25, 772.03 738.69 M122.14 1510.69 C310.3 1294.25, 498.45 1077.8, 772.3 762.77 M122.14 1510.69 C267.05 1343.99, 411.96 1177.29, 772.3 762.77 M143.4 1510.62 C378.85 1239.77, 614.3 968.92, 772.56 786.86 M143.4 1510.62 C364.69 1256.06, 585.98 1001.49, 772.56 786.86 M164.66 1510.55 C338.29 1310.82, 511.92 1111.08, 772.17 811.69 M164.66 1510.55 C402.35 1237.13, 640.04 963.7, 772.17 811.69 M185.92 1510.48 C393.17 1272.07, 600.43 1033.66, 772.44 835.77 M185.92 1510.48 C355.08 1315.89, 524.24 1121.29, 772.44 835.77 M207.18 1510.42 C339.94 1357.7, 472.69 1204.99, 772.05 860.61 M207.18 1510.42 C432.43 1251.3, 657.68 992.19, 772.05 860.61 M228.44 1510.35 C360.5 1358.43, 492.56 1206.52, 772.32 884.69 M228.44 1510.35 C425.01 1284.22, 621.58 1058.1, 772.32 884.69 M249.7 1510.28 C389.67 1349.27, 529.64 1188.25, 772.58 908.77 M249.7 1510.28 C445.33 1285.24, 640.95 1060.21, 772.58 908.77 M270.97 1510.21 C423.58 1334.64, 576.2 1159.07, 772.19 933.61 M270.97 1510.21 C405.39 1355.57, 539.82 1200.93, 772.19 933.61 M292.23 1510.14 C473.26 1301.88, 654.3 1093.62, 772.46 957.69 M292.23 1510.14 C476.42 1298.25, 660.62 1086.35, 772.46 957.69 M313.49 1510.07 C434.01 1371.42, 554.53 1232.78, 772.07 982.53 M313.49 1510.07 C425.25 1381.5, 537.01 1252.94, 772.07 982.53 M334.75 1510 C430.39 1399.98, 526.03 1289.95, 772.34 1006.61 M334.75 1510 C435.73 1393.84, 536.71 1277.67, 772.34 1006.61 M355.35 1510.69 C482.49 1364.43, 609.63 1218.18, 772.6 1030.69 M355.35 1510.69 C464.01 1385.69, 572.67 1260.69, 772.6 1030.69 M376.61 1510.62 C499.49 1369.26, 622.36 1227.91, 772.21 1055.53 M376.61 1510.62 C478.26 1393.68, 579.92 1276.74, 772.21 1055.53 M397.87 1510.55 C502.6 1390.07, 607.33 1269.6, 772.48 1079.61 M397.87 1510.55 C483.39 1412.17, 568.9 1313.8, 772.48 1079.61 M419.13 1510.48 C501.64 1415.56, 584.15 1320.65, 772.09 1104.45 M419.13 1510.48 C539.44 1372.08, 659.75 1233.68, 772.09 1104.45 M440.39 1510.41 C539.75 1396.11, 639.12 1281.8, 772.36 1128.53 M440.39 1510.41 C571.44 1359.66, 702.49 1208.9, 772.36 1128.53 M461.65 1510.34 C533.55 1427.63, 605.45 1344.92, 772.62 1152.61 M461.65 1510.34 C554.53 1403.5, 647.41 1296.66, 772.62 1152.61 M482.91 1510.27 C580.81 1397.66, 678.71 1285.04, 772.23 1177.45 M482.91 1510.27 C582.68 1395.51, 682.44 1280.74, 772.23 1177.45 M504.17 1510.2 C560.14 1445.81, 616.12 1381.42, 772.5 1201.53 M504.17 1510.2 C580.4 1422.51, 656.63 1334.82, 772.5 1201.53 M525.43 1510.14 C583.06 1443.84, 640.7 1377.54, 772.11 1226.36 M525.43 1510.14 C575 1453.12, 624.56 1396.1, 772.11 1226.36 M546.69 1510.07 C622.09 1423.33, 697.49 1336.59, 772.38 1250.45 M546.69 1510.07 C634.34 1409.24, 721.98 1308.42, 772.38 1250.45 M567.95 1510 C626.19 1443, 684.44 1376, 772.64 1274.53 M567.95 1510 C613.6 1457.48, 659.25 1404.97, 772.64 1274.53 M588.56 1510.68 C632.35 1460.31, 676.13 1409.94, 772.25 1299.36 M588.56 1510.68 C632.67 1459.93, 676.79 1409.18, 772.25 1299.36 M609.82 1510.61 C650.98 1463.26, 692.14 1415.92, 772.52 1323.45 M609.82 1510.61 C643.75 1471.57, 677.69 1432.53, 772.52 1323.45 M631.08 1510.55 C661.35 1475.72, 691.61 1440.9, 772.13 1348.28 M631.08 1510.55 C660.09 1477.16, 689.11 1443.78, 772.13 1348.28 M652.34 1510.48 C695.96 1460.29, 739.59 1410.1, 772.4 1372.36 M652.34 1510.48 C687.46 1470.07, 722.59 1429.66, 772.4 1372.36 M673.6 1510.41 C695.23 1485.52, 716.87 1460.63, 772.66 1396.45 M673.6 1510.41 C712.11 1466.11, 750.62 1421.8, 772.66 1396.45 M694.86 1510.34 C718.29 1483.39, 741.72 1456.43, 772.27 1421.28 M694.86 1510.34 C721.75 1479.4, 748.65 1448.46, 772.27 1421.28 M716.12 1510.27 C731.24 1492.88, 746.36 1475.48, 772.54 1445.36 M716.12 1510.27 C729.12 1495.31, 742.12 1480.35, 772.54 1445.36 M737.38 1510.2 C745.03 1501.39, 752.69 1492.58, 772.15 1470.2 M737.38 1510.2 C750.7 1494.87, 764.02 1479.55, 772.15 1470.2" stroke="#1e1e1e" stroke-width="2" fill="none"></path><path d="M32 0 C190.74 0, 349.48 0, 739.67 0 M739.67 0 C761 0, 771.67 10.67, 771.67 32 M771.67 32 C771.67 430.18, 771.67 828.37, 771.67 1478 M771.67 1478 C771.67 1499.33, 761 1510, 739.67 1510 M739.67 1510 C521.4 1510, 303.13 1510, 32 1510 M32 1510 C10.67 1510, 0 1499.33, 0 1478 M0 1478 C0 1146.69, 0 815.38, 0 32 M0 32 C0 10.67, 10.67 0, 32 0" stroke="#1e1e1e" stroke-width="4.5" fill="none" stroke-dasharray="8 12"></path></g><g stroke-linecap="round" transform="translate(618.4790253412157 449.72456283758515) rotate(0 329.5833333333336 108.5)"><path d="M32 0 C231.6 0.36, 432.21 0.55, 627.17 0 M32 0 C177.91 1.03, 323.8 1.06, 627.17 0 M627.17 0 C646.81 -0.12, 657.77 12.01, 659.17 32 M627.17 0 C650.52 0.22, 658.76 9.96, 659.17 32 M659.17 32 C660.64 73.62, 659.95 120.14, 659.17 185 M659.17 32 C660.35 68.2, 660.75 102.74, 659.17 185 M659.17 185 C657.52 205.24, 648.95 218.12, 627.17 217 M659.17 185 C656.91 207.27, 649.95 218.14, 627.17 217 M627.17 217 C458.31 216.69, 287.68 217.97, 32 217 M627.17 217 C471.04 217.25, 314.75 216.96, 32 217 M32 217 C10.85 216.32, 0.63 204.69, 0 185 M32 217 C11.28 218.99, 1.86 206.53, 0 185 M0 185 C-0.32 145.64, 2.11 107.39, 0 32 M0 185 C0.48 148.47, 1.13 111.71, 0 32 M0 32 C1.75 8.83, 10.62 1.26, 32 0 M0 32 C1.57 11.68, 9.02 1.33, 32 0" stroke="#1971c2" stroke-width="4" fill="none"></path></g><g transform="translate(423.3123586745493 531.7959914090138) rotate(0 37.0107421875 20.700000000000003)"><text x="0" y="0" font-family="Helvetica, Segoe UI Emoji" font-size="36px" fill="#1971c2" text-anchor="start" style="white-space: pre;" direction="ltr" dominant-baseline="text-before-edge">ERS</text></g><g transform="translate(1054.8599777221673 769.5102771232997) rotate(0 10.54998779296875 12.5)"><text x="0" y="0" font-family="Virgil, Segoe UI Emoji" font-size="20px" fill="#ffffff" text-anchor="start" style="white-space: pre;" direction="ltr" dominant-baseline="text-before-edge">df</text></g><g transform="translate(1109.8599777221673 761.1769437899665) rotate(0 5.019996643066406 12.5)"><text x="0" y="0" font-family="Virgil, Segoe UI Emoji" font-size="20px" fill="#ffffff" text-anchor="start" style="white-space: pre;" direction="ltr" dominant-baseline="text-before-edge">c</text></g><g stroke-linecap="round" transform="translate(631.0623586745487 927.4458921387085) rotate(0 342.73809523809496 133.8571428571429)"><path d="M32 0 C247.22 -1.08, 462.96 -0.09, 653.48 0 M32 0 C240.45 0.01, 449.44 -0.01, 653.48 0 M653.48 0 C674.1 0.57, 683.81 10.6, 685.48 32 M653.48 0 C675.68 0.74, 687.09 11.98, 685.48 32 M685.48 32 C686.68 104.09, 686.64 173.6, 685.48 235.71 M685.48 32 C684.61 75.3, 683.84 119.64, 685.48 235.71 M685.48 235.71 C685.26 258.56, 676.57 267.62, 653.48 267.71 M685.48 235.71 C686.9 255.56, 673.49 268.58, 653.48 267.71 M653.48 267.71 C474.15 270.36, 294.7 269.12, 32 267.71 M653.48 267.71 C446.65 269.78, 238.96 269.92, 32 267.71 M32 267.71 C10.09 266.58, -0.57 257.56, 0 235.71 M32 267.71 C9.69 267.24, 2.2 257.55, 0 235.71 M0 235.71 C1.21 193.16, 2.36 151.51, 0 32 M0 235.71 C-1.93 158.49, -1.95 81.38, 0 32 M0 32 C-1.97 11.34, 11.03 1.27, 32 0 M0 32 C-1.89 9.11, 9.38 -0.21, 32 0" stroke="#2f9e44" stroke-width="4" fill="none"></path></g><g transform="translate(10 1033.7157183465506) rotate(0 245.1181640625 20.69999999999999)"><text x="0" y="0" font-family="Helvetica, Segoe UI Emoji" font-size="36px" fill="#2f9e44" text-anchor="start" style="white-space: pre;" direction="ltr" dominant-baseline="text-before-edge">Raspberry Pi - hardware node </text></g><g stroke-linecap="round"><g transform="translate(442.5623586745471 193.47777314186084) rotate(0 2161.666666666666 -1.6666666666666572)"><path d="M0 0 C720.56 -0.56, 3602.78 -2.78, 4323.33 -3.33" stroke="#1e1e1e" stroke-width="4.5" fill="none" stroke-dasharray="8 12"></path></g><g transform="translate(442.5623586745471 193.47777314186084) rotate(0 2161.666666666666 -1.6666666666666572)"><path d="M4295.15 6.95 C4300.85 4.87, 4306.55 2.79, 4323.33 -3.33" stroke="#1e1e1e" stroke-width="4.5" fill="none"></path></g><g transform="translate(442.5623586745471 193.47777314186084) rotate(0 2161.666666666666 -1.6666666666666572)"><path d="M4295.13 -13.57 C4300.84 -11.5, 4306.54 -9.43, 4323.33 -3.33" stroke="#1e1e1e" stroke-width="4.5" fill="none"></path></g></g><mask></mask><g transform="translate(2341.38494982038 10) rotate(0 296.52783203125 57.36666666666666)"><text x="0" y="0" font-family="Helvetica, Segoe UI Emoji" font-size="99.76811594202898px" fill="#1e1e1e" text-anchor="start" style="white-space: pre;" direction="ltr" dominant-baseline="text-before-edge">USER FLOW</text></g><g transform="translate(308.0516164870468 1526.6666666666665) rotate(0 87.046875 41.39999999999998)"><text x="0" y="0" font-family="Helvetica, Segoe UI Emoji" font-size="36px" fill="#f08c00" text-anchor="start" style="white-space: pre;" direction="ltr" dominant-baseline="text-before-edge">Blockchain</text><text x="0" y="41.4" font-family="Helvetica, Segoe UI Emoji" font-size="36px" fill="#f08c00" text-anchor="start" style="white-space: pre;" direction="ltr" dominant-baseline="text-before-edge"></text></g><g stroke-linecap="round" transform="translate(620.2578903661628 1448.8666666666659) rotate(0 215.92894411299386 108.5)"><path d="M32 0 C150.37 0, 268.74 0, 399.86 0 M32 0 C110.14 0, 188.27 0, 399.86 0 M399.86 0 C421.19 0, 431.86 10.67, 431.86 32 M399.86 0 C421.19 0, 431.86 10.67, 431.86 32 M431.86 32 C431.86 86.87, 431.86 141.75, 431.86 185 M431.86 32 C431.86 86.43, 431.86 140.86, 431.86 185 M431.86 185 C431.86 206.33, 421.19 217, 399.86 217 M431.86 185 C431.86 206.33, 421.19 217, 399.86 217 M399.86 217 C256.15 217, 112.43 217, 32 217 M399.86 217 C265.99 217, 132.13 217, 32 217 M32 217 C10.67 217, 0 206.33, 0 185 M32 217 C10.67 217, 0 206.33, 0 185 M0 185 C0 146.88, 0 108.76, 0 32 M0 185 C0 150.73, 0 116.46, 0 32 M0 32 C0 10.67, 10.67 0, 32 0 M0 32 C0 10.67, 10.67 0, 32 0" stroke="#f08c00" stroke-width="4" fill="none"></path></g><g stroke-linecap="round"><g transform="translate(842.4377152415132 345.6683573000631) rotate(0 -2.4442505584451624 287.96064652695645)"><path d="M1.02 1.06 C-0.13 96.79, -5.13 479.16, -5.99 574.89 M0.1 0.58 C-0.78 96.38, -3.09 479.9, -3.86 575.88" stroke="#1e1e1e" stroke-width="4" fill="none"></path></g><g transform="translate(842.4377152415132 345.6683573000631) rotate(0 -2.4442505584451624 287.96064652695645)"><path d="M-13.92 547.62 C-8.22 556.41, -7.89 570.23, -3.86 575.88 M-13.92 547.62 C-10.82 555.93, -7.8 562.46, -3.86 575.88" stroke="#1e1e1e" stroke-width="4" fill="none"></path></g><g transform="translate(842.4377152415132 345.6683573000631) rotate(0 -2.4442505584451624 287.96064652695645)"><path d="M6.6 547.76 C4.53 556.67, -2.93 570.44, -3.86 575.88 M6.6 547.76 C4.41 555.88, 2.13 562.37, -3.86 575.88" stroke="#1e1e1e" stroke-width="4" fill="none"></path></g></g><mask></mask><g transform="translate(801.3849498203797 226.66666666666657) rotate(0 209.109375 20.699999999999996)"><text x="0" y="0" font-family="Helvetica, Segoe UI Emoji" font-size="36px" fill="#1e1e1e" text-anchor="start" style="white-space: pre;" direction="ltr" dominant-baseline="text-before-edge">Node initialization process</text></g><g transform="translate(649.0748825463189 362.53333611488335) rotate(0 92.6201171875 32.199999999999996)"><text x="0" y="0" font-family="Helvetica, Segoe UI Emoji" font-size="28px" fill="#1e1e1e" text-anchor="start" style="white-space: pre;" direction="ltr" dominant-baseline="text-before-edge">Authentication </text><text x="0" y="32.199999999999996" font-family="Helvetica, Segoe UI Emoji" font-size="28px" fill="#1e1e1e" text-anchor="start" style="white-space: pre;" direction="ltr" dominant-baseline="text-before-edge">using card</text></g><g transform="translate(767.7505097162134 1045.2777877648668) rotate(0 178.9716796875 16.100000000000023)"><text x="0" y="0" font-family="Helvetica, Segoe UI Emoji" font-size="28px" fill="#1e1e1e" text-anchor="start" style="white-space: pre;" direction="ltr" dominant-baseline="text-before-edge">Saving NFC chip data locally</text></g><g stroke-linecap="round"><g transform="translate(1085.6616777417635 922.7476931886092) rotate(0 4.932305727043399 -292.2507879346043)"><path d="M-0.43 0.59 C1.08 -96.77, 8.33 -485.86, 10.18 -583.47 M1.55 -0.15 C2.82 -97.88, 7.94 -487.74, 9.4 -585.05" stroke="#1e1e1e" stroke-width="4" fill="none"></path></g><g transform="translate(1085.6616777417635 922.7476931886092) rotate(0 4.932305727043399 -292.2507879346043)"><path d="M19.26 -556.72 C16.19 -567.41, 13.03 -577.8, 9.4 -585.05 M19.26 -556.72 C16.13 -563.71, 15.09 -570.6, 9.4 -585.05" stroke="#1e1e1e" stroke-width="4" fill="none"></path></g><g transform="translate(1085.6616777417635 922.7476931886092) rotate(0 4.932305727043399 -292.2507879346043)"><path d="M-1.26 -557.01 C3.77 -567.51, 8.7 -577.79, 9.4 -585.05 M-1.26 -557.01 C0.8 -564.07, 4.95 -570.88, 9.4 -585.05" stroke="#1e1e1e" stroke-width="4" fill="none"></path></g></g><mask></mask><g transform="translate(1114.2573456537134 747.3777877648669) rotate(0 82.4892578125 32.19999999999999)"><text x="0" y="0" font-family="Helvetica, Segoe UI Emoji" font-size="28px" fill="#1e1e1e" text-anchor="start" style="white-space: pre;" direction="ltr" dominant-baseline="text-before-edge">Creating new</text><text x="0" y="32.199999999999996" font-family="Helvetica, Segoe UI Emoji" font-size="28px" fill="#1e1e1e" text-anchor="start" style="white-space: pre;" direction="ltr" dominant-baseline="text-before-edge"> service</text></g><g transform="translate(678.9422414870473 535.4444313844044) rotate(0 54.4619140625 32.19999999999999)"><text x="0" y="0" font-family="Helvetica, Segoe UI Emoji" font-size="28px" fill="#1e1e1e" text-anchor="start" style="white-space: pre;" direction="ltr" dominant-baseline="text-before-edge">Claiming</text><text x="0" y="32.199999999999996" font-family="Helvetica, Segoe UI Emoji" font-size="28px" fill="#1e1e1e" text-anchor="start" style="white-space: pre;" direction="ltr" dominant-baseline="text-before-edge"> a chip</text></g><g stroke-linecap="round"><g transform="translate(860.3929016700608 1201.6644275952513) rotate(0 -2.242655473654679 203.8083447530214)"><path d="M-1.02 -0.86 C-1.7 66.82, -3.29 339.05, -3.98 407.2 M0.65 1.31 C-0.15 69.66, -3.5 341.08, -4.66 408.51" stroke="#1e1e1e" stroke-width="4" fill="none"></path></g><g transform="translate(860.3929016700608 1201.6644275952513) rotate(0 -2.242655473654679 203.8083447530214)"><path d="M-14.51 380.18 C-12.63 389.84, -8.87 396.59, -4.66 408.51 M-14.51 380.18 C-10.18 389.64, -7.23 398.58, -4.66 408.51" stroke="#1e1e1e" stroke-width="4" fill="none"></path></g><g transform="translate(860.3929016700608 1201.6644275952513) rotate(0 -2.242655473654679 203.8083447530214)"><path d="M6.01 380.47 C1.57 389.87, -0.99 396.53, -4.66 408.51 M6.01 380.47 C3.48 389.89, -0.43 398.72, -4.66 408.51" stroke="#1e1e1e" stroke-width="4" fill="none"></path></g></g><mask></mask><g transform="translate(702.2153114530713 1285.0309191423794) rotate(0 58.3720703125 32.19999999999999)"><text x="0" y="0" font-family="Helvetica, Segoe UI Emoji" font-size="28px" fill="#1e1e1e" text-anchor="start" style="white-space: pre;" direction="ltr" dominant-baseline="text-before-edge">Saving</text><text x="0" y="32.199999999999996" font-family="Helvetica, Segoe UI Emoji" font-size="28px" fill="#1e1e1e" text-anchor="start" style="white-space: pre;" direction="ltr" dominant-baseline="text-before-edge">metadata</text></g><g transform="translate(627.4538913911772 1489.5562128169695) rotate(0 98.3828125 32.200000000000045)"><text x="0" y="0" font-family="Helvetica, Segoe UI Emoji" font-size="28px" fill="#1e1e1e" text-anchor="start" style="white-space: pre;" direction="ltr" dominant-baseline="text-before-edge">Adding node</text><text x="0" y="32.199999999999996" font-family="Helvetica, Segoe UI Emoji" font-size="28px" fill="#1e1e1e" text-anchor="start" style="white-space: pre;" direction="ltr" dominant-baseline="text-before-edge">to user's project</text></g><g stroke-linecap="round"><g transform="translate(1015.460241274753 1433.6704076977671) rotate(0 2.1965087870296998 -116.6569309102241)"><path d="M0.49 0.88 C1.29 -38.11, 4.46 -194.84, 4.94 -233.76 M-0.72 0.29 C-0.03 -38.54, 3.21 -193.3, 4.29 -232.45" stroke="#1e1e1e" stroke-width="4" fill="none"></path></g><g transform="translate(1015.460241274753 1433.6704076977671) rotate(0 2.1965087870296998 -116.6569309102241)"><path d="M13.88 -204.03 C12.33 -211.88, 7.15 -223.31, 4.29 -232.45 M13.88 -204.03 C11.02 -213.5, 6.65 -223.61, 4.29 -232.45" stroke="#1e1e1e" stroke-width="4" fill="none"></path></g><g transform="translate(1015.460241274753 1433.6704076977671) rotate(0 2.1965087870296998 -116.6569309102241)"><path d="M-6.64 -204.51 C-1.83 -212.3, -0.64 -223.57, 4.29 -232.45 M-6.64 -204.51 C-2.2 -213.92, 0.73 -223.86, 4.29 -232.45" stroke="#1e1e1e" stroke-width="4" fill="none"></path></g></g><mask></mask><g transform="translate(1084.7867376770075 1296.8882953452576) rotate(0 104.2958984375 32.19999999999999)"><text x="0" y="0" font-family="Helvetica, Segoe UI Emoji" font-size="28px" fill="#1e1e1e" text-anchor="start" style="white-space: pre;" direction="ltr" dominant-baseline="text-before-edge">Sending tx hash </text><text x="0" y="32.199999999999996" font-family="Helvetica, Segoe UI Emoji" font-size="28px" fill="#1e1e1e" text-anchor="start" style="white-space: pre;" direction="ltr" dominant-baseline="text-before-edge">as confirmation</text></g><g transform="translate(2965.715241789211 227.9001176484124) rotate(0 199.107421875 20.700000000000003)"><text x="0" y="0" font-family="Helvetica, Segoe UI Emoji" font-size="36px" fill="#1e1e1e" text-anchor="start" style="white-space: pre;" direction="ltr" dominant-baseline="text-before-edge">Node interaction process</text></g><g stroke-opacity="0.1" fill-opacity="0.1" stroke-linecap="round" transform="translate(2549.174647150104 316.22695148798505) rotate(0 463.9131684096317 754.9999999999998)"><path d="M7.86 8.16 C7.86 8.16, 7.86 8.16, 7.86 8.16 M7.86 8.16 C7.86 8.16, 7.86 8.16, 7.86 8.16 M0.26 41.3 C9.16 31.06, 18.06 20.82, 36.34 -0.21 M0.26 41.3 C13.36 26.22, 26.47 11.14, 36.34 -0.21 M0.52 65.38 C20.41 42.5, 40.3 19.62, 57.6 -0.28 M0.52 65.38 C18.09 45.16, 35.67 24.95, 57.6 -0.28 M0.13 90.22 C26.01 60.45, 51.88 30.69, 78.2 0.41 M0.13 90.22 C19.66 67.75, 39.2 45.28, 78.2 0.41 M0.4 114.3 C37.99 71.05, 75.58 27.81, 99.46 0.34 M0.4 114.3 C20.95 90.66, 41.49 67.02, 99.46 0.34 M0.01 139.13 C42.91 89.78, 85.82 40.42, 120.72 0.27 M0.01 139.13 C30.84 103.67, 61.67 68.2, 120.72 0.27 M0.27 163.22 C46.48 110.06, 92.68 56.91, 141.98 0.2 M0.27 163.22 C29.13 130.03, 57.98 96.84, 141.98 0.2 M0.54 187.3 C47.23 133.59, 93.91 79.89, 163.24 0.13 M0.54 187.3 C44.48 136.75, 88.42 86.2, 163.24 0.13 M0.15 212.13 C53.18 151.13, 106.21 90.13, 184.5 0.06 M0.15 212.13 C65.86 136.55, 131.56 60.96, 184.5 0.06 M0.42 236.22 C73.64 151.98, 146.87 67.74, 205.76 -0.01 M0.42 236.22 C66.72 159.94, 133.03 83.67, 205.76 -0.01 M0.03 261.05 C51.36 202, 102.7 142.94, 227.02 -0.08 M0.03 261.05 C59.8 192.29, 119.57 123.53, 227.02 -0.08 M0.29 285.13 C64.17 211.66, 128.04 138.18, 248.28 -0.15 M0.29 285.13 C94.55 176.7, 188.82 68.26, 248.28 -0.15 M-0.1 309.97 C98.59 196.44, 197.28 82.92, 269.54 -0.22 M-0.1 309.97 C69.81 229.55, 139.72 149.13, 269.54 -0.22 M0.17 334.05 C100.59 218.53, 201.01 103.02, 290.8 -0.28 M0.17 334.05 C100.56 218.57, 200.94 103.09, 290.8 -0.28 M0.44 358.13 C122.99 217.15, 245.54 76.18, 311.41 0.4 M0.44 358.13 C67.83 280.61, 135.22 203.08, 311.41 0.4 M0.05 382.97 C79.41 291.67, 158.78 200.37, 332.67 0.33 M0.05 382.97 C86.53 283.48, 173.01 184, 332.67 0.33 M0.31 407.05 C92.2 301.35, 184.08 195.65, 353.93 0.26 M0.31 407.05 C122.54 266.45, 244.76 125.85, 353.93 0.26 M-0.08 431.89 C81.55 337.99, 163.17 244.1, 375.19 0.19 M-0.08 431.89 C113.48 301.25, 227.04 170.61, 375.19 0.19 M0.19 455.97 C148.86 284.95, 297.52 113.92, 396.45 0.12 M0.19 455.97 C156.12 276.6, 312.04 97.22, 396.45 0.12 M0.46 480.05 C94.49 371.87, 188.53 263.7, 417.71 0.06 M0.46 480.05 C162.96 293.12, 325.45 106.18, 417.71 0.06 M0.07 504.89 C94.21 396.59, 188.35 288.29, 438.97 -0.01 M0.07 504.89 C107.7 381.07, 215.34 257.24, 438.97 -0.01 M0.33 528.97 C123.53 387.25, 246.72 245.53, 460.23 -0.08 M0.33 528.97 C172.44 330.99, 344.54 133.01, 460.23 -0.08 M-0.06 553.81 C151.5 379.46, 303.05 205.12, 481.49 -0.15 M-0.06 553.81 C155.65 374.69, 311.35 195.58, 481.49 -0.15 M0.21 577.89 C107.34 454.65, 214.47 331.41, 502.75 -0.22 M0.21 577.89 C124.91 434.44, 249.61 290.99, 502.75 -0.22 M0.48 601.97 C144.41 436.4, 288.34 270.82, 523.35 0.47 M0.48 601.97 C203.22 368.74, 405.97 135.5, 523.35 0.47 M0.09 626.81 C213.51 381.29, 426.93 135.78, 544.61 0.4 M0.09 626.81 C185.17 413.89, 370.26 200.96, 544.61 0.4 M0.35 650.89 C202.83 417.96, 405.31 185.03, 565.87 0.33 M0.35 650.89 C190.33 432.34, 380.31 213.8, 565.87 0.33 M-0.04 675.72 C233.26 407.34, 466.56 138.96, 587.14 0.26 M-0.04 675.72 C185.36 462.45, 370.76 249.18, 587.14 0.26 M0.23 699.81 C175.05 498.69, 349.88 297.58, 608.4 0.19 M0.23 699.81 C123.6 557.89, 246.96 415.97, 608.4 0.19 M0.49 723.89 C179.81 517.61, 359.13 311.33, 629.66 0.12 M0.49 723.89 C239.17 449.32, 477.85 174.75, 629.66 0.12 M0.11 748.72 C163.1 561.22, 326.09 373.72, 650.92 0.05 M0.11 748.72 C235.03 478.48, 469.95 208.23, 650.92 0.05 M0.37 772.81 C251.05 484.43, 501.73 196.06, 672.18 -0.02 M0.37 772.81 C183.08 562.63, 365.78 352.45, 672.18 -0.02 M-0.02 797.64 C205.52 561.2, 411.06 324.75, 693.44 -0.09 M-0.02 797.64 C222.05 542.18, 444.12 286.72, 693.44 -0.09 M0.25 821.72 C173.43 622.5, 346.61 423.28, 714.7 -0.16 M0.25 821.72 C194.77 597.95, 389.29 374.18, 714.7 -0.16 M0.51 845.81 C248.54 560.49, 496.56 275.17, 735.96 -0.22 M0.51 845.81 C241.83 568.2, 483.15 290.59, 735.96 -0.22 M0.12 870.64 C254.24 578.32, 508.35 285.99, 756.56 0.46 M0.12 870.64 C300.04 525.63, 599.95 180.62, 756.56 0.46 M0.39 894.72 C270.46 584.04, 540.53 273.36, 777.82 0.39 M0.39 894.72 C287.72 564.18, 575.06 233.64, 777.82 0.39 M0 919.56 C287.21 589.17, 574.41 258.78, 799.08 0.32 M0 919.56 C318.29 553.41, 636.58 187.26, 799.08 0.32 M0.27 943.64 C298.57 600.48, 596.87 257.33, 820.34 0.25 M0.27 943.64 C301.32 597.32, 602.37 251, 820.34 0.25 M0.53 967.72 C236.89 695.83, 473.24 423.94, 841.6 0.19 M0.53 967.72 C310.88 610.72, 621.22 253.71, 841.6 0.19 M0.14 992.56 C246.66 708.97, 493.18 425.39, 862.86 0.12 M0.14 992.56 C328.5 614.83, 656.86 237.09, 862.86 0.12 M0.41 1016.64 C293.26 679.76, 586.11 342.88, 884.12 0.05 M0.41 1016.64 C298.4 673.85, 596.38 331.05, 884.12 0.05 M0.02 1041.48 C249.07 754.98, 498.12 468.48, 904.73 0.73 M0.02 1041.48 C187.82 825.44, 375.61 609.41, 904.73 0.73 M0.29 1065.56 C187.51 850.19, 374.73 634.81, 919.43 8.21 M0.29 1065.56 C247.69 780.96, 495.08 496.36, 919.43 8.21 M-0.1 1090.4 C330.87 709.66, 661.84 328.92, 927.56 23.24 M-0.1 1090.4 C355.16 681.71, 710.43 273.02, 927.56 23.24 M0.16 1114.48 C235.42 843.84, 470.69 573.2, 927.83 47.32 M0.16 1114.48 C249.33 827.84, 498.5 541.21, 927.83 47.32 M0.43 1138.56 C201.87 906.83, 403.31 675.1, 928.1 71.4 M0.43 1138.56 C352.24 733.85, 704.05 329.14, 928.1 71.4 M0.04 1163.4 C277.68 844.01, 555.31 524.63, 927.71 96.24 M0.04 1163.4 C349.49 761.4, 698.95 359.39, 927.71 96.24 M0.31 1187.48 C191.22 967.85, 382.14 748.23, 927.97 120.32 M0.31 1187.48 C191.74 967.26, 383.17 747.04, 927.97 120.32 M-0.08 1212.31 C205.3 976.05, 410.68 739.79, 927.58 145.15 M-0.08 1212.31 C345.19 815.12, 690.46 417.93, 927.58 145.15 M0.18 1236.4 C310.64 879.26, 621.09 522.13, 927.85 169.24 M0.18 1236.4 C196.65 1010.39, 393.11 784.38, 927.85 169.24 M0.45 1260.48 C337.29 872.99, 674.12 485.5, 928.12 193.32 M0.45 1260.48 C344.88 864.25, 689.31 468.03, 928.12 193.32 M0.06 1285.31 C258.07 988.5, 516.08 691.69, 927.73 218.15 M0.06 1285.31 C260.24 986.01, 520.43 686.7, 927.73 218.15 M0.33 1309.4 C306.52 957.16, 612.71 604.93, 927.99 242.24 M0.33 1309.4 C211.55 1066.41, 422.77 823.43, 927.99 242.24 M-0.06 1334.23 C346.08 936.04, 692.22 537.85, 927.6 267.07 M-0.06 1334.23 C217.83 1083.57, 435.73 832.91, 927.6 267.07 M0.2 1358.31 C362.41 941.64, 724.63 524.96, 927.87 291.15 M0.2 1358.31 C308.75 1003.37, 617.31 648.42, 927.87 291.15 M0.47 1382.4 C203.7 1148.61, 406.92 914.82, 928.14 315.24 M0.47 1382.4 C218.46 1131.62, 436.46 880.85, 928.14 315.24 M0.08 1407.23 C255.12 1113.84, 510.17 820.44, 927.75 340.07 M0.08 1407.23 C199.31 1178.05, 398.53 948.86, 927.75 340.07 M0.34 1431.31 C258.12 1134.78, 515.9 838.24, 928.01 364.15 M0.34 1431.31 C351.23 1027.67, 702.12 624.02, 928.01 364.15 M-0.05 1456.15 C349.37 1054.19, 698.78 652.24, 927.62 388.99 M-0.05 1456.15 C315.69 1092.94, 631.43 729.72, 927.62 388.99 M0.88 1479.48 C254.83 1187.34, 508.78 895.2, 927.89 413.07 M0.88 1479.48 C278.62 1159.97, 556.36 840.47, 927.89 413.07 M5.74 1498.28 C329.78 1125.5, 653.83 752.73, 928.15 437.15 M5.74 1498.28 C294.55 1166.04, 583.36 833.8, 928.15 437.15 M18.47 1508.02 C376.92 1095.67, 735.36 683.32, 927.77 461.99 M18.47 1508.02 C356.31 1119.38, 694.15 730.74, 927.77 461.99 M37.76 1510.21 C320 1185.53, 602.24 860.85, 928.03 486.07 M37.76 1510.21 C281.88 1229.38, 526.01 948.55, 928.03 486.07 M59.02 1510.14 C309.23 1222.31, 559.45 934.47, 927.64 510.91 M59.02 1510.14 C323.08 1206.37, 587.15 902.6, 927.64 510.91 M80.28 1510.08 C296 1261.92, 511.71 1013.77, 927.91 534.99 M80.28 1510.08 C336.6 1215.21, 592.92 920.35, 927.91 534.99 M101.54 1510.01 C322.61 1255.7, 543.67 1001.39, 928.17 559.07 M101.54 1510.01 C386.28 1182.45, 671.03 854.88, 928.17 559.07 M122.14 1510.69 C288.81 1318.97, 455.47 1127.25, 927.78 583.91 M122.14 1510.69 C294.44 1312.48, 466.74 1114.27, 927.78 583.91 M143.4 1510.62 C384.07 1233.76, 624.75 956.9, 928.05 607.99 M143.4 1510.62 C361.44 1259.81, 579.47 1008.99, 928.05 607.99 M164.66 1510.55 C378.16 1264.95, 591.66 1019.35, 927.66 632.83 M164.66 1510.55 C441.12 1192.52, 717.58 874.49, 927.66 632.83 M185.92 1510.48 C366.13 1303.18, 546.33 1095.88, 927.93 656.91 M185.92 1510.48 C354.14 1316.98, 522.35 1123.48, 927.93 656.91 M207.18 1510.42 C381.31 1310.11, 555.43 1109.81, 928.19 680.99 M207.18 1510.42 C379.51 1312.18, 551.84 1113.94, 928.19 680.99 M228.44 1510.35 C490.88 1208.45, 753.32 906.54, 927.8 705.83 M228.44 1510.35 C403.91 1308.49, 579.38 1106.64, 927.8 705.83 M249.7 1510.28 C468.53 1258.55, 687.36 1006.81, 928.07 729.91 M249.7 1510.28 C434.63 1297.55, 619.55 1084.82, 928.07 729.91 M270.97 1510.21 C445.53 1309.39, 620.1 1108.57, 927.68 754.74 M270.97 1510.21 C499.46 1247.36, 727.95 984.5, 927.68 754.74 M292.23 1510.14 C429.69 1352.01, 567.15 1193.88, 927.95 778.83 M292.23 1510.14 C438.01 1342.43, 583.8 1174.73, 927.95 778.83 M313.49 1510.07 C521.63 1270.62, 729.78 1031.17, 927.56 803.66 M313.49 1510.07 C468.7 1331.51, 623.92 1152.95, 927.56 803.66 M334.75 1510 C499.68 1320.26, 664.62 1130.53, 927.82 827.74 M334.75 1510 C461 1364.76, 587.26 1219.52, 927.82 827.74 M355.35 1510.69 C516.64 1325.15, 677.93 1139.6, 928.09 851.83 M355.35 1510.69 C491.58 1353.97, 627.82 1197.25, 928.09 851.83 M376.61 1510.62 C556.47 1303.71, 736.33 1096.81, 927.7 876.66 M376.61 1510.62 C522.37 1342.94, 668.13 1175.26, 927.7 876.66 M397.87 1510.55 C526.77 1362.27, 655.67 1213.98, 927.97 900.74 M397.87 1510.55 C563.88 1319.57, 729.89 1128.6, 927.97 900.74 M419.13 1510.48 C542.02 1369.11, 664.91 1227.75, 927.58 925.58 M419.13 1510.48 C603.63 1298.24, 788.13 1085.99, 927.58 925.58 M440.39 1510.41 C555.21 1378.33, 670.03 1246.24, 927.84 949.66 M440.39 1510.41 C550.64 1383.59, 660.88 1256.77, 927.84 949.66 M461.65 1510.34 C632.95 1313.28, 804.25 1116.23, 928.11 973.74 M461.65 1510.34 C566.24 1390.03, 670.83 1269.71, 928.11 973.74 M482.91 1510.27 C631.11 1339.79, 779.3 1169.31, 927.72 998.58 M482.91 1510.27 C599.36 1376.31, 715.81 1242.35, 927.72 998.58 M504.17 1510.2 C634.99 1359.72, 765.8 1209.23, 927.99 1022.66 M504.17 1510.2 C632.27 1362.84, 760.37 1215.48, 927.99 1022.66 M525.43 1510.14 C635.2 1383.86, 744.97 1257.59, 927.6 1047.5 M525.43 1510.14 C622.97 1397.93, 720.51 1285.73, 927.6 1047.5 M546.69 1510.07 C674.06 1363.55, 801.42 1217.03, 927.86 1071.58 M546.69 1510.07 C694.65 1339.86, 842.62 1169.64, 927.86 1071.58 M567.95 1510 C659.54 1404.64, 751.13 1299.28, 928.13 1095.66 M567.95 1510 C686.21 1373.96, 804.46 1237.92, 928.13 1095.66 M588.56 1510.68 C715.52 1364.63, 842.49 1218.57, 927.74 1120.5 M588.56 1510.68 C660.03 1428.47, 731.5 1346.25, 927.74 1120.5 M609.82 1510.61 C717.72 1386.49, 825.62 1262.36, 928 1144.58 M609.82 1510.61 C678.75 1431.31, 747.69 1352.01, 928 1144.58 M631.08 1510.55 C697.03 1434.68, 762.97 1358.81, 927.61 1169.42 M631.08 1510.55 C701.08 1430.02, 771.08 1349.49, 927.61 1169.42 M652.34 1510.48 C721.73 1430.65, 791.12 1350.82, 927.88 1193.5 M652.34 1510.48 C746.7 1401.93, 841.06 1293.37, 927.88 1193.5 M673.6 1510.41 C758.62 1412.6, 843.64 1314.8, 928.15 1217.58 M673.6 1510.41 C741.8 1431.95, 810 1353.49, 928.15 1217.58 M694.86 1510.34 C783.21 1408.7, 871.57 1307.06, 927.76 1242.42 M694.86 1510.34 C759.65 1435.8, 824.45 1361.26, 927.76 1242.42 M716.12 1510.27 C764.29 1454.86, 812.46 1399.44, 928.02 1266.5 M716.12 1510.27 C768.58 1449.92, 821.03 1389.58, 928.02 1266.5 M737.38 1510.2 C807.99 1428.97, 878.6 1347.75, 927.63 1291.33 M737.38 1510.2 C800.9 1437.13, 864.42 1364.06, 927.63 1291.33 M758.64 1510.13 C806.54 1455.03, 854.44 1399.92, 927.9 1315.42 M758.64 1510.13 C801.57 1460.75, 844.49 1411.36, 927.9 1315.42 M779.9 1510.06 C830.16 1452.24, 880.43 1394.41, 928.17 1339.5 M779.9 1510.06 C832.81 1449.19, 885.73 1388.32, 928.17 1339.5 M801.16 1509.99 C844.74 1459.86, 888.32 1409.72, 927.78 1364.33 M801.16 1509.99 C839.44 1465.95, 877.72 1421.91, 927.78 1364.33 M821.76 1510.68 C849.13 1479.2, 876.49 1447.72, 928.04 1388.42 M821.76 1510.68 C857.07 1470.06, 892.38 1429.44, 928.04 1388.42 M843.02 1510.61 C869.82 1479.79, 896.61 1448.96, 927.65 1413.25 M843.02 1510.61 C872.43 1476.78, 901.83 1442.96, 927.65 1413.25 M864.28 1510.54 C887.41 1483.94, 910.53 1457.34, 927.92 1437.33 M864.28 1510.54 C888.62 1482.55, 912.95 1454.55, 927.92 1437.33 M885.54 1510.47 C901.25 1492.4, 916.96 1474.33, 928.19 1461.42 M885.54 1510.47 C897.49 1496.73, 909.43 1482.99, 928.19 1461.42 M908.77 1508.14 C915.55 1500.34, 922.32 1492.55, 927.8 1486.25 M908.77 1508.14 C915.76 1500.1, 922.75 1492.06, 927.8 1486.25" stroke="#1e1e1e" stroke-width="2" fill="none"></path><path d="M32 0 C254.5 0, 477 0, 895.83 0 M895.83 0 C917.16 0, 927.83 10.67, 927.83 32 M927.83 32 C927.83 361.53, 927.83 691.05, 927.83 1478 M927.83 1478 C927.83 1499.33, 917.16 1510, 895.83 1510 M895.83 1510 C584.27 1510, 272.71 1510, 32 1510 M32 1510 C10.67 1510, 0 1499.33, 0 1478 M0 1478 C0 1113.73, 0 749.46, 0 32 M0 32 C0 10.67, 10.67 0, 32 0" stroke="#1e1e1e" stroke-width="4.5" fill="none" stroke-dasharray="8 12"></path></g><g transform="translate(2783.827986988714 366.98265672413066) rotate(0 237.34375 32.199999999999996)"><text x="0" y="0" font-family="Helvetica, Segoe UI Emoji" font-size="28px" fill="#1e1e1e" text-anchor="start" style="white-space: pre;" direction="ltr" dominant-baseline="text-before-edge">User authentication(e.g. user trying to </text><text x="0" y="32.199999999999996" font-family="Helvetica, Segoe UI Emoji" font-size="28px" fill="#1e1e1e" text-anchor="start" style="white-space: pre;" direction="ltr" dominant-baseline="text-before-edge">open a locked door)</text></g><g stroke-linecap="round" transform="translate(2867.5498077633915 455.20802349204513) rotate(0 155.29798718088182 108.5)"><path d="M32 0 C98.18 0.15, 165.22 -2.16, 278.6 0 M32 0 C98.07 0.8, 164.38 0.35, 278.6 0 M278.6 0 C299.23 -1.74, 309.48 12.3, 310.6 32 M278.6 0 C298.01 -0.53, 312.42 10.4, 310.6 32 M310.6 32 C313.66 89.32, 310.9 151.31, 310.6 185 M310.6 32 C309.39 81.13, 310.09 131.29, 310.6 185 M310.6 185 C308.67 204.68, 298.78 216.62, 278.6 217 M310.6 185 C310.26 208.02, 298.74 218.75, 278.6 217 M278.6 217 C210 216.37, 141.49 215.56, 32 217 M278.6 217 C213.19 215.4, 148.57 216, 32 217 M32 217 C9.52 216.11, 0.09 207.78, 0 185 M32 217 C11.13 215.08, -1.13 204.94, 0 185 M0 185 C-1.46 142.75, 1.05 103.03, 0 32 M0 185 C0.51 136.44, 1.55 88.06, 0 32 M0 32 C-0.21 10.87, 11.67 0.74, 32 0 M0 32 C-1.61 8.69, 9.72 -1.52, 32 0" stroke="#1971c2" stroke-width="4" fill="none"></path></g><g stroke-linecap="round" transform="translate(2754.006686474818 909.4841532464495) rotate(0 118.25856939373716 129.67429454948405)"><path d="M32 0 C89.45 -2.03, 145.31 -0.01, 204.52 0 M32 0 C76.36 -0.53, 120.99 -2, 204.52 0 M204.52 0 C225.58 0.42, 238.48 8.96, 236.52 32 M204.52 0 C227.29 1.62, 238.79 11.36, 236.52 32 M236.52 32 C238.67 78.55, 236.31 124.14, 236.52 227.35 M236.52 32 C237.72 94.71, 237.47 156.93, 236.52 227.35 M236.52 227.35 C236.13 248.3, 224.59 258.36, 204.52 259.35 M236.52 227.35 C235.67 248.71, 224.69 259.76, 204.52 259.35 M204.52 259.35 C139.44 257.03, 78.43 258.4, 32 259.35 M204.52 259.35 C154.46 257.25, 105.02 258.37, 32 259.35 M32 259.35 C12.28 260.52, -0.41 246.7, 0 227.35 M32 259.35 C9.68 259.14, 2.22 249.4, 0 227.35 M0 227.35 C0.71 179.39, 2.08 133.77, 0 32 M0 227.35 C-1.61 172.94, -0.58 119.42, 0 32 M0 32 C0.78 8.98, 9.52 -0.46, 32 0 M0 32 C2.25 11.25, 8.54 1.29, 32 0" stroke="#2f9e44" stroke-width="4" fill="none"></path></g><g stroke-linecap="round"><g transform="translate(2821.9124840877084 440.0032956837018) rotate(0 -0.4344112603607755 222.42935637363456)"><path d="M-0.84 -1 C-0.88 72.97, -0.06 370.02, 0.07 444.31 M0.92 1.09 C0.78 75.17, -0.17 371.41, -0.38 445.56" stroke="#1e1e1e" stroke-width="4" fill="none"></path></g><g transform="translate(2821.9124840877084 440.0032956837018) rotate(0 -0.4344112603607755 222.42935637363456)"><path d="M-10.56 417.34 C-8.79 428.16, -4.73 437.17, -0.38 445.56 M-10.56 417.34 C-6.45 426.37, -4.19 434.74, -0.38 445.56" stroke="#1e1e1e" stroke-width="4" fill="none"></path></g><g transform="translate(2821.9124840877084 440.0032956837018) rotate(0 -0.4344112603607755 222.42935637363456)"><path d="M9.96 417.4 C5.05 428.06, 2.43 437.05, -0.38 445.56 M9.96 417.4 C8.11 426.29, 4.4 434.65, -0.38 445.56" stroke="#1e1e1e" stroke-width="4" fill="none"></path></g></g><mask></mask><g transform="translate(2597.2758710996263 564.9708099533159) rotate(0 84.8408203125 48.29999999999998)"><text x="0" y="0" font-family="Helvetica, Segoe UI Emoji" font-size="28px" fill="#1e1e1e" text-anchor="start" style="white-space: pre;" direction="ltr" dominant-baseline="text-before-edge">Sending chip </text><text x="0" y="32.199999999999996" font-family="Helvetica, Segoe UI Emoji" font-size="28px" fill="#1e1e1e" text-anchor="start" style="white-space: pre;" direction="ltr" dominant-baseline="text-before-edge">singature </text><text x="0" y="64.39999999999999" font-family="Helvetica, Segoe UI Emoji" font-size="28px" fill="#1e1e1e" text-anchor="start" style="white-space: pre;" direction="ltr" dominant-baseline="text-before-edge">through NFC</text></g><g stroke-linecap="round"><g transform="translate(2931.9568804158735 883.8249013941738) rotate(0 2.1597991323051247 -97.05120024385837)"><path d="M-0.19 0.54 C0.55 -31.85, 2.97 -162.22, 3.87 -194.83 M-1.74 -0.22 C-1.15 -32.42, 1.57 -161.32, 2.69 -193.68" stroke="#1e1e1e" stroke-width="4" fill="none"></path></g><g transform="translate(2931.9568804158735 883.8249013941738) rotate(0 2.1597991323051247 -97.05120024385837)"><path d="M12.19 -165.22 C10.81 -173.19, 6.28 -178.11, 2.69 -193.68 M12.19 -165.22 C9.44 -172.18, 9.05 -177.11, 2.69 -193.68" stroke="#1e1e1e" stroke-width="4" fill="none"></path></g><g transform="translate(2931.9568804158735 883.8249013941738) rotate(0 2.1597991323051247 -97.05120024385837)"><path d="M-8.32 -165.77 C-4.52 -173.56, -3.85 -178.35, 2.69 -193.68 M-8.32 -165.77 C-6.69 -172.56, -2.69 -177.36, 2.69 -193.68" stroke="#1e1e1e" stroke-width="4" fill="none"></path></g></g><mask></mask><g transform="translate(2774.8758906330786 995.0412961035923) rotate(0 100.3857421875 48.30000000000001)"><text x="0" y="0" font-family="Helvetica, Segoe UI Emoji" font-size="28px" fill="#1e1e1e" text-anchor="start" style="white-space: pre;" direction="ltr" dominant-baseline="text-before-edge">Request to ERS</text><text x="0" y="32.199999999999996" font-family="Helvetica, Segoe UI Emoji" font-size="28px" fill="#1e1e1e" text-anchor="start" style="white-space: pre;" direction="ltr" dominant-baseline="text-before-edge">To verify if user </text><text x="0" y="64.39999999999999" font-family="Helvetica, Segoe UI Emoji" font-size="28px" fill="#1e1e1e" text-anchor="start" style="white-space: pre;" direction="ltr" dominant-baseline="text-before-edge">is whitelisted</text></g><g transform="translate(2936.6126918625546 498.6766302614098) rotate(0 91.8203125 64.4)"><text x="0" y="0" font-family="Helvetica, Segoe UI Emoji" font-size="28px" fill="#1e1e1e" text-anchor="start" style="white-space: pre;" direction="ltr" dominant-baseline="text-before-edge">Refuse access</text><text x="0" y="32.199999999999996" font-family="Helvetica, Segoe UI Emoji" font-size="28px" fill="#1e1e1e" text-anchor="start" style="white-space: pre;" direction="ltr" dominant-baseline="text-before-edge">OR</text><text x="0" y="64.39999999999999" font-family="Helvetica, Segoe UI Emoji" font-size="28px" fill="#1e1e1e" text-anchor="start" style="white-space: pre;" direction="ltr" dominant-baseline="text-before-edge">Send positive </text><text x="0" y="96.6" font-family="Helvetica, Segoe UI Emoji" font-size="28px" fill="#1e1e1e" text-anchor="start" style="white-space: pre;" direction="ltr" dominant-baseline="text-before-edge">response</text></g><g stroke-linecap="round" transform="translate(3050.9889163185962 913.6670015541083) rotate(0 182.39557677783932 129.67429454948405)"><path d="M32 0 C126.29 -0.42, 217.27 0.24, 332.79 0 M32 0 C97.53 0.36, 163.26 0.66, 332.79 0 M332.79 0 C354.33 -1.87, 364.24 11.49, 364.79 32 M332.79 0 C355.93 1.33, 363.8 8.97, 364.79 32 M364.79 32 C365.09 103.82, 366.28 176.31, 364.79 227.35 M364.79 32 C367.09 96.54, 365.7 163.81, 364.79 227.35 M364.79 227.35 C366.34 246.81, 353.97 261.25, 332.79 259.35 M364.79 227.35 C365.68 249.32, 356.2 260.33, 332.79 259.35 M332.79 259.35 C235.34 262.1, 135.89 259.9, 32 259.35 M332.79 259.35 C222.04 259.96, 111.1 259.47, 32 259.35 M32 259.35 C11.57 260.81, -1.97 247.9, 0 227.35 M32 259.35 C10.49 261.12, -0.93 248.74, 0 227.35 M0 227.35 C-0.45 163.88, -1.36 96.29, 0 32 M0 227.35 C-1.36 151.94, -2.62 77.55, 0 32 M0 32 C-1.39 9.06, 11.77 -1.5, 32 0 M0 32 C0.15 12.75, 8.87 -1.93, 32 0" stroke="#2f9e44" stroke-width="4" fill="none"></path></g><g stroke-linecap="round"><g transform="translate(3120.1815872640063 681.6322507424503) rotate(0 -0.4395282031982788 109.49245206684577)"><path d="M0.86 -0.41 C0.79 35.9, 0.57 181.39, 0.16 217.8 M-0.15 -1.67 C-0.33 34.74, -0.42 181.95, -0.24 218.72" stroke="#1e1e1e" stroke-width="4" fill="none"></path></g><g transform="translate(3120.1815872640063 681.6322507424503) rotate(0 -0.4395282031982788 109.49245206684577)"><path d="M-10.54 190.54 C-7.67 201.96, -5.39 208.78, -0.24 218.72 M-10.54 190.54 C-7.5 197.13, -6.01 203.33, -0.24 218.72" stroke="#1e1e1e" stroke-width="4" fill="none"></path></g><g transform="translate(3120.1815872640063 681.6322507424503) rotate(0 -0.4395282031982788 109.49245206684577)"><path d="M9.98 190.51 C5.75 202.08, 0.93 208.91, -0.24 218.72 M9.98 190.51 C8.39 197.09, 5.25 203.3, -0.24 218.72" stroke="#1e1e1e" stroke-width="4" fill="none"></path></g></g><mask></mask><g transform="translate(3110.690226601421 967.1556407191999) rotate(0 132.2822265625 80.5)"><text x="0" y="0" font-family="Helvetica, Segoe UI Emoji" font-size="28px" fill="#1e1e1e" text-anchor="start" style="white-space: pre;" direction="ltr" dominant-baseline="text-before-edge">Perform node action</text><text x="0" y="32.199999999999996" font-family="Helvetica, Segoe UI Emoji" font-size="28px" fill="#1e1e1e" text-anchor="start" style="white-space: pre;" direction="ltr" dominant-baseline="text-before-edge">(e.g. open physical</text><text x="0" y="64.39999999999999" font-family="Helvetica, Segoe UI Emoji" font-size="28px" fill="#1e1e1e" text-anchor="start" style="white-space: pre;" direction="ltr" dominant-baseline="text-before-edge">item like door/box etc</text><text x="0" y="96.6" font-family="Helvetica, Segoe UI Emoji" font-size="28px" fill="#1e1e1e" text-anchor="start" style="white-space: pre;" direction="ltr" dominant-baseline="text-before-edge">or grant access to </text><text x="0" y="128.79999999999998" font-family="Helvetica, Segoe UI Emoji" font-size="28px" fill="#1e1e1e" text-anchor="start" style="white-space: pre;" direction="ltr" dominant-baseline="text-before-edge">resource)</text></g><g stroke-linecap="round"><g transform="translate(3304.8225174562554 897.8802646867296) rotate(0 -0.6287664061342184 -265.7594153194317)"><path d="M-0.62 -1.17 C-0.91 -89.48, -0.66 -442.1, -0.78 -530.69 M1.25 0.83 C0.77 -87.74, -0.91 -443.57, -1.47 -532.37" stroke="#1e1e1e" stroke-width="4" fill="none"></path></g><g transform="translate(3304.8225174562554 897.8802646867296) rotate(0 -0.6287664061342184 -265.7594153194317)"><path d="M8.94 -504.24 C3.26 -514.07, 2.69 -525.57, -1.47 -532.37 M8.94 -504.24 C6.91 -509.22, 3.84 -515.81, -1.47 -532.37" stroke="#1e1e1e" stroke-width="4" fill="none"></path></g><g transform="translate(3304.8225174562554 897.8802646867296) rotate(0 -0.6287664061342184 -265.7594153194317)"><path d="M-11.58 -504.12 C-9.54 -513.89, -2.39 -525.43, -1.47 -532.37 M-11.58 -504.12 C-9.47 -509.33, -8.39 -515.95, -1.47 -532.37" stroke="#1e1e1e" stroke-width="4" fill="none"></path></g></g><mask></mask></svg>